# xmcd
#
# Track frame offsets: 
#        150
#        18582
#        42472
#        63403
#
# Disc length: 1011 seconds
#
# Revision: 0
# Processed by: cddbd v1.5.2PL0 Copyright (c) Steve Scherf et al.
# Submitted via: ExactAudioCopy v0.99pb4
#
DISCID=3103f104
DTITLE=Sarah McCully - slivr of you
DYEAR=2003
DGENRE=Alt. Rock
TTITLE0=Love Me Better
TTITLE1=Price I Pay
TTITLE2=You Can't Stay
TTITLE3=Lullaby
EXTD=
EXTT0=
EXTT1=
EXTT2=
EXTT3=
PLAYORDER=
